--40002LOG 14:37:01:138355800 Waiting for file /home/seluser/videos/vid_chrome_or_firefox_40002* to be created...
Won't start video recording due to VIDEO env var false
ffmpeg version 2.8.17-0ubuntu0.1 Copyright (c) 2000-2020 the FFmpeg developers
  built with gcc 5.4.0 (Ubuntu 5.4.0-6ubuntu1~16.04.12) 20160609
  configuration: --prefix=/usr --extra-version=0ubuntu0.1 --build-suffix=-ffmpeg --toolchain=hardened --libdir=/usr/lib/x86_64-linux-gnu --incdir=/usr/include/x86_64-linux-gnu --cc=cc --cxx=g++ --enable-gpl --enable-shared --disable-stripping --disable-decoder=libopenjpeg --disable-decoder=libschroedinger --enable-avresample --enable-avisynth --enable-gnutls --enable-ladspa --enable-libass --enable-libbluray --enable-libbs2b --enable-libcaca --enable-libcdio --enable-libflite --enable-libfontconfig --enable-libfreetype --enable-libfribidi --enable-libgme --enable-libgsm --enable-libmodplug --enable-libmp3lame --enable-libopenjpeg --enable-libopus --enable-libpulse --enable-librtmp --enable-libschroedinger --enable-libshine --enable-libsnappy --enable-libsoxr --enable-libspeex --enable-libssh --enable-libtheora --enable-libtwolame --enable-libvorbis --enable-libvpx --enable-libwavpack --enable-libwebp --enable-libx265 --enable-libxvid --enable-libzvbi --enable-openal --enable-opengl --enable-x11grab --enable-libdc1394 --enable-libiec61883 --enable-libzmq --enable-frei0r --enable-libx264 --enable-libopencv
  libavutil      54. 31.100 / 54. 31.100
  libavcodec     56. 60.100 / 56. 60.100
  libavformat    56. 40.101 / 56. 40.101
  libavdevice    56.  4.100 / 56.  4.100
  libavfilter     5. 40.101 /  5. 40.101
  libavresample   2.  1.  0 /  2.  1.  0
  libswscale      3.  1.101 /  3.  1.101
  libswresample   1.  2.101 /  1.  2.101
  libpostproc    53.  3.100 / 53.  3.100
Input #0, x11grab, from ':11.0':
  Duration: N/A, start: 1605703021.757824, bitrate: N/A
    Stream #0:0: Video: rawvideo (BGR[0] / 0x524742), bgr0, 1366x768, 10 fps, 10 tbr, 1000k tbn, 10 tbc
[libx264 @ 0x17d4320] using cpu capabilities: MMX2 SSE2Fast SSSE3 SSE4.2 AVX FMA3 AVX2 LZCNT BMI2
[libx264 @ 0x17d4320] profile Constrained Baseline, level 3.2
[libx264 @ 0x17d4320] 264 - core 148 r2643 5c65704 - H.264/MPEG-4 AVC codec - Copyleft 2003-2015 - http://www.videolan.org/x264.html - options: cabac=0 ref=1 deblock=0:0:0 analyse=0:0 me=dia subme=0 psy=1 psy_rd=1.00:0.00 mixed_ref=0 me_range=16 chroma_me=1 trellis=0 8x8dct=0 cqm=0 deadzone=21,11 fast_pskip=1 chroma_qp_offset=0 threads=3 lookahead_threads=1 sliced_threads=0 nr=0 decimate=1 interlaced=0 bluray_compat=0 constrained_intra=0 bframes=0 weightp=0 keyint=250 keyint_min=10 scenecut=0 intra_refresh=0 rc=crf mbtree=0 crf=23.0 qcomp=0.60 qpmin=0 qpmax=69 qpstep=4 ip_ratio=1.40 aq=0
Output #0, matroska, to '/home/seluser/videos/vid_chrome_or_firefox_40002.mkv':
  Metadata:
    encoder         : Lavf56.40.101
    Stream #0:0: Video: h264 (libx264) (H264 / 0x34363248), yuv420p, 1366x768, q=-1--1, 10 fps, 1k tbn, 10 tbc
    Metadata:
      encoder         : Lavc56.60.100 libx264
Stream mapping:
  Stream #0:0 -> #0:0 (rawvideo (native) -> h264 (libx264))
Press [q] to stop, [?] for help
[swscaler @ 0x17dfca0] Warning: data is not aligned! This can lead to a speedloss
frame=    7 fps=0.0 q=11.0 size=      32kB time=00:00:00.30 bitrate= 871.0kbits/s    
frame=   13 fps= 12 q=9.0 size=      48kB time=00:00:00.90 bitrate= 439.9kbits/s    
frame=   18 fps= 11 q=14.0 size=      50kB time=00:00:01.40 bitrate= 293.2kbits/s    
frame=   24 fps= 11 q=9.0 size=      63kB time=00:00:02.00 bitrate= 256.4kbits/s    
frame=   30 fps= 11 q=9.0 size=      64kB time=00:00:02.60 bitrate= 201.7kbits/s    
frame=   35 fps= 11 q=14.0 size=      65kB time=00:00:03.10 bitrate= 171.3kbits/s    
frame=   41 fps= 11 q=9.0 size=      93kB time=00:00:03.70 bitrate= 205.8kbits/s    
frame=   46 fps= 11 q=9.0 size=      95kB time=00:00:04.20 bitrate= 184.9kbits/s    
frame=   52 fps= 10 q=9.0 size=      96kB time=00:00:04.80 bitrate= 164.5kbits/s    
frame=   58 fps= 10 q=9.0 size=      97kB time=00:00:05.40 bitrate= 147.8kbits/s    
frame=   64 fps= 10 q=9.0 size=      99kB time=00:00:06.00 bitrate= 134.9kbits/s    
frame=   69 fps= 10 q=19.0 size=     100kB time=00:00:06.50 bitrate= 125.9kbits/s    
frame=   75 fps= 10 q=11.0 size=     186kB time=00:00:07.10 bitrate= 215.0kbits/s    
frame=   81 fps= 10 q=19.0 size=     233kB time=00:00:07.70 bitrate= 248.0kbits/s    
frame=   87 fps= 10 q=18.0 size=     302kB time=00:00:08.30 bitrate= 298.1kbits/s    
frame=   93 fps= 10 q=11.0 size=     370kB time=00:00:08.90 bitrate= 340.3kbits/s    
frame=   99 fps= 10 q=9.0 size=     401kB time=00:00:09.50 bitrate= 345.8kbits/s    
frame=  104 fps= 10 q=18.0 size=     405kB time=00:00:10.00 bitrate= 331.7kbits/s    
frame=  110 fps= 10 q=10.0 size=     582kB time=00:00:10.60 bitrate= 450.1kbits/s    
frame=  115 fps= 10 q=9.0 size=     609kB time=00:00:11.10 bitrate= 449.1kbits/s    
frame=  121 fps= 10 q=9.0 size=     609kB time=00:00:11.70 bitrate= 426.5kbits/s    
frame=  126 fps= 10 q=9.0 size=     610kB time=00:00:12.20 bitrate= 409.4kbits/s    
frame=  132 fps= 10 q=11.0 size=     650kB time=00:00:12.80 bitrate= 416.2kbits/s    
frame=  137 fps= 10 q=9.0 size=     662kB time=00:00:13.30 bitrate= 407.5kbits/s    
frame=  143 fps= 10 q=9.0 size=     664kB time=00:00:13.90 bitrate= 391.3kbits/s    
frame=  148 fps= 10 q=9.0 size=     664kB time=00:00:14.40 bitrate= 377.8kbits/s    
frame=  154 fps= 10 q=9.0 size=     664kB time=00:00:15.00 bitrate= 362.9kbits/s    
frame=  159 fps= 10 q=9.0 size=     665kB time=00:00:15.50 bitrate= 351.3kbits/s    
frame=  164 fps= 10 q=9.0 size=     665kB time=00:00:16.00 bitrate= 340.4kbits/s    
frame=  170 fps= 10 q=9.0 size=     665kB time=00:00:16.60 bitrate= 328.3kbits/s    
frame=  176 fps= 10 q=9.0 size=     666kB time=00:00:17.20 bitrate= 317.0kbits/s    
frame=  182 fps= 10 q=9.0 size=     666kB time=00:00:17.80 bitrate= 306.5kbits/s    
frame=  187 fps= 10 q=9.0 size=     666kB time=00:00:18.30 bitrate= 298.2kbits/s    
frame=  192 fps= 10 q=9.0 size=     667kB time=00:00:18.80 bitrate= 290.4kbits/s    
frame=  197 fps= 10 q=9.0 size=     667kB time=00:00:19.30 bitrate= 283.0kbits/s    
frame=  202 fps= 10 q=9.0 size=     667kB time=00:00:19.80 bitrate= 276.0kbits/s    
frame=  207 fps= 10 q=9.0 size=     667kB time=00:00:20.30 bitrate= 269.3kbits/s    
frame=  211 fps=9.9 q=9.0 size=     668kB time=00:00:20.70 bitrate= 264.2kbits/s    
frame=  217 fps= 10 q=9.0 size=     668kB time=00:00:21.30 bitrate= 256.9kbits/s    
frame=  221 fps=9.9 q=9.0 size=     668kB time=00:00:21.70 bitrate= 252.2kbits/s    
frame=  224 fps=9.8 q=9.0 size=     668kB time=00:00:22.00 bitrate= 248.8kbits/s    
frame=  226 fps=9.6 q=9.0 size=     668kB time=00:00:22.20 bitrate= 246.6kbits/s    
frame=  237 fps=9.9 q=9.0 size=     669kB time=00:00:23.30 bitrate= 235.2kbits/s    
frame=  247 fps= 10 q=9.0 size=     669kB time=00:00:24.30 bitrate= 225.6kbits/s    
frame=  253 fps= 10 q=7.0 size=     672kB time=00:00:24.90 bitrate= 221.2kbits/s    
frame=  258 fps= 10 q=13.0 size=     797kB time=00:00:25.40 bitrate= 257.2kbits/s    
frame=  264 fps= 10 q=12.0 size=     814kB time=00:00:26.00 bitrate= 256.4kbits/s    
frame=  270 fps= 10 q=10.0 size=     831kB time=00:00:26.60 bitrate= 255.8kbits/s    
frame=  275 fps= 10 q=9.0 size=     831kB time=00:00:27.10 bitrate= 251.2kbits/s    
frame=  280 fps= 10 q=10.0 size=     831kB time=00:00:27.60 bitrate= 246.8kbits/s    
frame=  285 fps= 10 q=10.0 size=     833kB time=00:00:28.10 bitrate= 242.7kbits/s    
frame=  291 fps= 10 q=17.0 size=     834kB time=00:00:28.70 bitrate= 238.0kbits/s    
frame=  297 fps= 10 q=10.0 size=     871kB time=00:00:29.30 bitrate= 243.6kbits/s    
frame=  303 fps= 10 q=10.0 size=     876kB time=00:00:29.90 bitrate= 239.9kbits/s    
frame=  308 fps= 10 q=11.0 size=     877kB time=00:00:30.40 bitrate= 236.3kbits/s    
frame=  314 fps= 10 q=17.0 size=     882kB time=00:00:31.00 bitrate= 233.0kbits/s    
frame=  319 fps= 10 q=13.0 size=    1017kB time=00:00:31.50 bitrate= 264.6kbits/s    
frame=  325 fps= 10 q=9.0 size=    1056kB time=00:00:32.10 bitrate= 269.6kbits/s    
frame=  330 fps= 10 q=9.0 size=    1062kB time=00:00:32.60 bitrate= 266.8kbits/s    
frame=  336 fps= 10 q=9.0 size=    1062kB time=00:00:33.20 bitrate= 262.2kbits/s    
frame=  342 fps= 10 q=9.0 size=    1063kB time=00:00:33.80 bitrate= 257.7kbits/s    
frame=  348 fps= 10 q=9.0 size=    1064kB time=00:00:34.40 bitrate= 253.3kbits/s    
frame=  354 fps= 10 q=9.0 size=    1064kB time=00:00:35.00 bitrate= 249.1kbits/s    
frame=  359 fps= 10 q=9.0 size=    1065kB time=00:00:35.50 bitrate= 245.7kbits/s    
frame=  364 fps= 10 q=9.0 size=    1065kB time=00:00:36.00 bitrate= 242.5kbits/s    
frame=  369 fps= 10 q=9.0 size=    1066kB time=00:00:36.50 bitrate= 239.2kbits/s    
frame=  375 fps= 10 q=9.0 size=    1067kB time=00:00:37.10 bitrate= 235.5kbits/s    
frame=  381 fps= 10 q=9.0 size=    1067kB time=00:00:37.70 bitrate= 231.9kbits/s    
frame=  387 fps= 10 q=9.0 size=    1068kB time=00:00:38.30 bitrate= 228.4kbits/s    
frame=  393 fps= 10 q=9.0 size=    1069kB time=00:00:38.90 bitrate= 225.0kbits/s    
frame=  399 fps= 10 q=9.0 size=    1069kB time=00:00:39.50 bitrate= 221.8kbits/s    
frame=  404 fps= 10 q=9.0 size=    1070kB time=00:00:40.00 bitrate= 219.1kbits/s    
frame=  410 fps= 10 q=9.0 size=    1071kB time=00:00:40.60 bitrate= 216.0kbits/s    
frame=  415 fps= 10 q=9.0 size=    1071kB time=00:00:41.10 bitrate= 213.5kbits/s    
frame=  420 fps= 10 q=9.0 size=    1072kB time=00:00:41.60 bitrate= 211.0kbits/s    
frame=  427 fps= 10 q=10.0 size=    1100kB time=00:00:42.30 bitrate= 213.1kbits/s    
frame=  433 fps= 10 q=9.0 size=    1104kB time=00:00:42.90 bitrate= 210.8kbits/s    
frame=  439 fps= 10 q=10.0 size=    1108kB time=00:00:43.50 bitrate= 208.8kbits/s    
--40002LOG 14:37:45:793716600 Trapped SIGTERM or SIGINT so shutting down ffmpeg gracefully...
--40002LOG 14:37:45:808912900 Will kill VID_TOOL_PID=797 ...
frame=  442 fps= 10 q=-1.0 Lsize=    1109kB time=00:00:44.20 bitrate= 205.5kbits/s    
video:1105kB audio:0kB subtitle:0kB other streams:0kB global headers:0kB muxing overhead: 0.331418%
[libx264 @ 0x17d4320] frame I:2     Avg QP:13.50  size: 69270
[libx264 @ 0x17d4320] frame P:440   Avg QP:10.07  size:  2256
[libx264 @ 0x17d4320] mb I  I16..4: 100.0%  0.0%  0.0%
[libx264 @ 0x17d4320] mb P  I16..4:  1.9%  0.0%  0.0%  P16..4:  2.0%  0.0%  0.0%  0.0%  0.0%    skip:96.1%
[libx264 @ 0x17d4320] coded y,uvDC,uvAC intra: 14.7% 9.4% 8.7% inter: 0.9% 0.9% 0.6%
[libx264 @ 0x17d4320] i16 v,h,dc,p: 73% 25%  1%  1%
[libx264 @ 0x17d4320] i8c dc,h,v,p: 82% 15%  3%  1%
[libx264 @ 0x17d4320] kb/s:204.74
Exiting normally, received signal 2.
--40002LOG 14:37:46:841016600 Tried to kill -SIGTERM VID_TOOL_PID=797
--40002LOG 14:37:46:861519400 Waiting up to 6s for VID_TOOL_PID=797 to end with SIGTERM...
--40002LOG 14:37:46:899149000 wait_pid successfully managed to SIGTERM:VID_TOOL_PID=797 within less than 6s
--40002LOG 14:37:46:914541000 Will try to fix the videos...
--40002LOG 14:37:47:482522600 Fixing perms for /home/seluser/videos/vid_chrome_or_firefox_40002.mkv*
--40002LOG 14:37:47:784965400 Changing video encoding from mkv to mp4...
--40002LOG 14:37:53:893992400 Conversion from mkv to mp4 succeeded!
--40002LOG 14:37:53:933720400 Cleaning up /home/seluser/videos/vid_chrome_or_firefox_40002.mkv ...
--40002LOG 14:37:53:942749800 Optimizing /home/seluser/videos/vid_chrome_or_firefox_40002.mp4 for HTTP streaming...
--40002LOG 14:37:54:036048600 Succeeded to mp4box_retry.sh within 8s
--40002LOG 14:37:54:050294300 ffmpeg shutdown complete.
